# xmcd
#
# Track frame offsets:
#	150
#	15000
#	30730
#	48020
#	61880
#	79218
#	93775
#	110865
#	128080
#	146235
#	166947
#	186359
#	209356
#	226104
#	243662
#	275134
#
# Disc length: 3680 seconds
#
# Revision: 0
# Processed by: cddbd v1.5.2PL0 Copyright (c) Steve Scherf et al.
# Submitted via: audiograbber 1.83.01
#
DISCID=d80e5e10
DTITLE=SOUND CHOICE - SC8738
DYEAR=1900
DGENRE=Country
TTITLE0=The Dixie Chicks - If I Fall You're Going Down With Me
TTITLE1=Cyndi Thomson - What I Really Meant To Say
TTITLE2=Faith Hill - If My Heart Had Wings
TTITLE3=Trick Pony - Pour Me
TTITLE4=Faith Hill - There You'll Be
TTITLE5=Jamie O'Neal - When I Think About Angels
TTITLE6=Carolyn Dawn Johnson - Complicated (Radio Version)
TTITLE7=Martina McBride - When God Fearin' Women Get The Blues (Radio Version)
TTITLE8=Trick Pony - On A Night Like This (Radio Version)
TTITLE9=Lee Ann Womack - Ashes By Now
TTITLE10=Jessica Andrews - Who I Am
TTITLE11=Jo Dee Messina - Burn
TTITLE12=Tammy Cochran - Angels In Waiting
TTITLE13=Trisha Yearwood - I Would Have Loved You Anyway
TTITLE14=Sara Evans - I Could Not Ask For More (Radio Version)
TTITLE15=Data - DATA
EXTD=
EXTT0=
EXTT1=
EXTT2=
EXTT3=
EXTT4=
EXTT5=
EXTT6=
EXTT7=
EXTT8=
EXTT9=
EXTT10=
EXTT11=
EXTT12=
EXTT13=
EXTT14=
EXTT15=
PLAYORDER=
